<svg xmlns="http://www.w3.org/2000/svg" viewBox="0 0 512 512">
  <defs>
    <radialGradient id="a" cx="78%" cy="18%" r="70%"><stop offset="0" stop-color="#E0457B"/><stop offset="1" stop-color="#E0457B" stop-opacity="0"/></radialGradient>
    <radialGradient id="b" cx="12%" cy="62%" r="62%"><stop offset="0" stop-color="#FF6B5B"/><stop offset="1" stop-color="#FF6B5B" stop-opacity="0"/></radialGradient>
    <radialGradient id="c" cx="70%" cy="100%" r="70%"><stop offset="0" stop-color="#7B5CFF"/><stop offset="1" stop-color="#7B5CFF" stop-opacity="0"/></radialGradient>
    <linearGradient id="g" x1="0" y1="0" x2="1" y2="1"><stop offset="0" stop-color="#fff" stop-opacity=".34"/><stop offset=".5" stop-color="#fff" stop-opacity=".1"/><stop offset="1" stop-color="#fff" stop-opacity=".2"/></linearGradient>
  </defs>
  <rect width="512" height="512" fill="#0D1120"/>
  <rect width="512" height="512" fill="url(#a)"/><rect width="512" height="512" fill="url(#b)"/><rect width="512" height="512" fill="url(#c)"/>
  <rect x="96" y="96" width="320" height="320" rx="84" fill="url(#g)" stroke="#fff" stroke-opacity=".55" stroke-width="3"/>
  <g transform="translate(124 112) scale(11)" fill="none" stroke="#FFFFFF" stroke-width="2" stroke-linecap="round" stroke-linejoin="round">
    <path d="M5 20v-8.5a7 7 0 0 1 14 0V20M3 20h18"/>
    <path d="M12 17.5c-1.6 0-2.6-1-2.6-2.3 0-1.6 1.6-2.3 2.6-3.9 1 1.6 2.6 2.3 2.6 3.9 0 1.3-1 2.3-2.6 2.3z" fill="#FFB547" stroke="#FFFFFF"/>
  </g>
</svg>
